<?xml version="1.0" ?><!DOCTYPE svg  PUBLIC '-//W3C//DTD SVG 1.1//EN'  'http://www.w3.org/Graphics/SVG/1.1/DTD/svg11.dtd'><svg enable-background="new 0 0 212.879 210.902" height="210.902" id="Layer_1" overflow="visible" version="1.1" viewBox="0 0 212.879 210.902" width="212.879" xml:space="preserve" xmlns="http://www.w3.org/2000/svg" xmlns:xlink="http://www.w3.org/1999/xlink"><path d="M157.249,142.521c-40.537,0-73.705-2.633-73.705-45.912v-8.456H26.583V21.655c0-8.341-4.852-14.18-13.193-14.18h-0.196  C4.852,7.475,0,13.313,0,21.655v174.083c0,8.342,4.852,14.181,13.193,14.181h0.196c8.341,0,13.193-5.839,13.193-14.181v-41.073  h109.542v41.445c0,8.138,6.203,14.794,13.785,14.794s13.784-6.656,13.784-14.794v-53.626  C161.568,142.51,159.42,142.521,157.249,142.521z"/><path d="M204.35,4.964L178.608,30.76h-51.662l-24.24-25.296c0,0-8.67-12.294-8.67,0V30.76h-0.175v57.828  c0,41.111,26.78,43.613,59.509,43.613c32.732,0,59.51-3.488,59.51-43.613V4.964C212.879-3.568,204.35,4.964,204.35,4.964z   M127.975,81.248c-6.623,0-11.993-5.37-11.993-11.993c0-6.624,5.37-11.993,11.993-11.993s11.992,5.369,11.992,11.993  C139.967,75.878,134.598,81.248,127.975,81.248z M185.54,81.249c-6.623,0-11.994-5.37-11.994-11.994s5.371-11.994,11.994-11.994  c6.625,0,11.994,5.37,11.994,11.994S192.165,81.249,185.54,81.249z"/></svg>